<?xml version="1.0" encoding="UTF-8"?>
<!DOCTYPE svg PUBLIC "-//W3C//DTD SVG 1.1//EN" "http://www.w3.org/Graphics/SVG/1.1/DTD/svg11.dtd">
<svg version="1.1" xmlns="http://www.w3.org/2000/svg" xmlns:xlink="http://www.w3.org/1999/xlink" x="0" y="0" width="547" height="596" viewBox="0, 0, 547, 596">
  <g id="Layer_1">
    <path d="M179.019,374.589 L180,387.603 C172.314,388.179 165.033,388.782 158.355,389.412 L157.14,376.416 C163.899,375.786 171.261,375.174 179.019,374.589 M214.011,372.303 L214.758,385.326 C207.144,385.767 199.827,386.217 193.023,386.676 L192.15,373.662 C198.999,373.203 206.352,372.744 214.011,372.303 M144.009,377.739 L145.413,390.708 C137.709,391.545 130.5,392.445 123.984,393.399 L122.103,380.484 C128.772,379.512 136.143,378.594 144.009,377.739 M74.07,391.509 L78.525,403.767 C71.451,406.341 65.493,409.248 60.309,412.641 L53.154,401.733 C59.184,397.782 66.024,394.434 74.07,391.509 M248.976,370.476 L249.597,383.508 C241.983,383.877 234.657,384.246 227.817,384.606 L227.124,371.574 C233.982,371.214 241.335,370.845 248.976,370.476 M108.954,382.608 L111.258,395.451 C103.491,396.846 96.696,398.331 90.495,400.014 L87.084,387.423 C93.663,385.641 100.809,384.066 108.954,382.608 M422.307,356.562 L424.368,369.45 C417.609,370.53 410.265,371.565 402.534,372.537 L400.905,359.586 C408.492,358.641 415.692,357.624 422.307,356.562 M455.868,349.713 L459.198,362.331 C452.682,364.05 445.365,365.679 437.454,367.182 L435.024,354.357 C442.638,352.917 449.658,351.36 455.868,349.713 M283.869,368.847 L284.517,381.879 C278.541,382.176 272.385,382.473 266.049,382.752 L262.674,382.905 L262.08,369.873 L265.464,369.72 C271.773,369.441 277.911,369.153 283.869,368.847 M472.167,358.461 L467.991,346.104 C475.209,343.665 481.383,340.983 486.864,337.914 L493.245,349.29 C487.053,352.764 480.168,355.761 472.167,358.461 M318.672,366.894 L319.491,379.908 C312.462,380.358 305.109,380.79 297.639,381.195 L296.928,368.172 C304.362,367.758 311.679,367.335 318.672,366.894 M353.394,364.392 L354.465,377.397 C347.517,377.964 340.164,378.522 332.604,379.044 L331.704,366.03 C339.21,365.508 346.509,364.959 353.394,364.392 M387.999,361.107 L389.421,374.076 C382.563,374.832 375.21,375.57 367.578,376.263 L366.39,363.276 C373.941,362.583 381.213,361.854 387.999,361.107 M237.213,229.104 L236.349,216.081 C243.216,215.622 250.344,215.181 257.517,214.776 L258.264,227.799 C251.127,228.213 244.044,228.645 237.213,229.104 M136.701,239.058 L134.838,226.143 C141.534,225.18 148.644,224.235 155.952,223.353 L157.518,236.304 C150.309,237.177 143.298,238.104 136.701,239.058 M41.364,264.528 L35.055,253.107 C40.878,249.894 47.673,246.87 55.269,244.098 L59.733,256.356 C52.776,258.894 46.593,261.639 41.364,264.528 M71.424,252.495 L67.671,240.003 C74.043,238.086 81.063,236.25 88.542,234.54 L91.458,247.257 C84.258,248.904 77.517,250.668 71.424,252.495 M439.956,208.368 L437.13,195.633 C444.384,194.013 451.116,192.285 457.137,190.476 L460.881,202.977 C454.554,204.876 447.516,206.685 439.956,208.368 M406.269,214.569 L404.298,201.672 C411.561,200.556 418.491,199.377 424.899,198.153 L427.347,210.96 C420.786,212.22 413.694,213.435 406.269,214.569 M473.31,198.828 L468.756,186.606 C475.659,184.032 481.581,181.278 486.864,178.182 L493.452,189.441 C487.512,192.915 480.924,195.984 473.31,198.828 M338.643,222.39 L337.509,209.394 C344.718,208.764 351.765,208.098 358.461,207.414 L359.793,220.392 C353.034,221.085 345.915,221.751 338.643,222.39 M372.483,219.024 L371.007,206.055 C378.252,205.236 385.263,204.363 391.851,203.472 L393.606,216.396 C386.928,217.305 379.818,218.187 372.483,219.024 M270.927,227.097 L270.207,214.074 C277.407,213.678 284.499,213.264 291.267,212.832 L292.086,225.855 C285.282,226.287 278.163,226.701 270.927,227.097 M304.794,225.018 L303.894,212.004 C311.085,211.509 318.159,210.987 324.918,210.447 L325.953,223.452 C319.149,223.992 312.03,224.523 304.794,225.018 M203.58,231.633 L202.482,218.637 C209.313,218.052 216.432,217.494 223.65,216.972 L224.595,229.986 C217.431,230.508 210.357,231.057 203.58,231.633 M170.055,234.864 L168.633,221.895 C175.401,221.157 182.52,220.437 189.792,219.762 L190.998,232.758 C183.798,233.424 176.751,234.135 170.055,234.864 M103.68,244.647 L101.133,231.849 C107.721,230.535 114.804,229.266 122.184,228.069 L124.263,240.957 C117.045,242.118 110.115,243.36 103.68,244.647 M506.475,472.887 L472.167,548.676 C446.616,527.202 426.735,519.309 395.973,506.727 L425.079,424.278 C455.787,431.208 485.937,446.112 506.475,472.887 M388.449,503.127 C364.041,495.315 334.854,490.167 302.499,484.533 L321.687,403.632 C350.874,406.044 397.116,413.226 418.005,422.172 L388.449,503.127 M142.191,92.592 C173.394,102.834 204.84,110.835 230.058,115.425 L214.65,198.792 C189.171,194.85 151.479,190.692 119.088,180.648 L142.191,92.592 M110.034,178.119 C87.831,174.501 55.35,161.442 25.983,134.775 L53.991,53.694 C83.349,68.391 109.494,81.36 133.767,89.586 L110.034,178.119 M206.973,239.13 L225.432,364.86 C182.43,367.686 141.471,371.484 108.531,378.27 L85.734,255.402 C118.674,247.716 162.621,242.766 206.973,239.13 M345.843,228.681 C378.792,225.918 416.439,223.02 441.45,218.151 L457.29,344.538 C432.54,350.703 400.347,354.609 365.346,357.318 L345.843,228.681 M219.663,237.726 C255.825,234.981 297.252,231.75 332.73,229.023 L350.145,357.633 C315.351,359.982 277.911,361.656 241.407,363.861 L219.663,237.726 M369.477,392.211 C375.741,393.057 381.879,393.984 387.765,394.974 L385.866,406.134 C380.133,405.171 374.13,404.262 367.983,403.434 L369.477,392.211 M49.68,462.168 L56.565,453.177 C60.273,455.85 65.502,458.334 72.117,460.584 L68.562,471.33 C60.597,468.63 54.396,465.624 49.68,462.168 M477.252,560.43 C475.506,558.594 473.868,556.92 472.392,555.489 L471.663,554.787 L463.023,567.09 L463.554,567.603 C466.227,570.195 467.748,571.869 469.224,573.48 L470.421,574.731 C469.188,577.296 468.153,579.438 467.361,581.067 C454.284,560.835 424.305,542.583 380.259,528.093 C334.863,513.171 277.128,502.992 213.282,498.663 C125.208,492.696 81.081,481.482 60.12,469.944 C62.775,471.096 65.673,472.194 68.841,473.238 L69.66,473.517 L74.304,459.486 L73.476,459.216 C66.222,456.813 60.651,454.149 56.925,451.296 L56.241,450.774 L48.276,461.16 C45.603,458.271 44.082,455.436 43.371,452.736 C42.966,451.161 42.84,449.595 42.939,448.038 L49.743,445.779 C61.848,452.277 82.503,460.89 104.958,460.611 L110.862,405.396 C113.076,405.018 115.344,404.658 117.657,404.307 L111.105,460.971 C135.873,466.767 174.501,472.419 199.548,472.419 L212.742,396.315 C215.937,396.153 219.15,395.991 222.381,395.838 L207.873,473.922 C240.705,474.75 269.874,479.07 295.164,483.228 L313.587,403.632 C300.15,399.06 283.77,395.613 263.286,393.984 C276.21,393.408 289.188,392.805 302.076,392.139 L301.563,397.674 L302.454,397.728 C304.308,397.845 308.979,398.556 313.488,399.249 C317.718,399.897 321.723,400.509 323.433,400.635 L324.297,400.698 L325.017,390.825 C326.403,390.744 327.798,390.663 329.184,390.573 L329.193,390.735 C330.975,390.618 333.108,390.501 335.52,390.402 L334.539,401.526 L335.403,401.598 C342.153,402.192 348.786,402.858 355.122,403.578 L355.977,403.677 L357.525,390.168 C360.828,390.231 364.32,390.348 367.965,390.528 L366.048,404.919 L366.903,405.036 C373.626,405.927 380.196,406.917 386.424,407.979 L387.279,408.123 L389.754,393.561 L388.899,393.408 C383.139,392.436 377.1,391.518 370.953,390.681 C388.656,391.662 409.626,394.11 431.127,399.438 C472.716,409.752 503.001,427.392 521.163,451.872 C521.073,453.744 520.587,456.255 519.786,459.288 C519.174,458.505 518.562,457.74 517.941,456.975 C517.239,456.111 516.528,455.238 515.79,454.275 L515.142,453.42 L506.178,464.094 L506.601,464.643 C508.122,466.623 511.812,472.059 514.305,475.848 C505.053,500.688 488.475,536.724 477.252,560.43 M471.213,573.084 L470.835,572.697 L470.502,572.328 C469.107,570.798 467.676,569.214 465.282,566.874 L471.915,557.442 C473.31,558.81 474.849,560.385 476.46,562.104 C474.507,566.217 472.734,569.916 471.213,573.084 M303.813,392.04 C310.338,391.698 316.836,391.329 323.28,390.933 L322.704,398.835 C320.724,398.61 317.187,398.07 313.749,397.539 C309.789,396.936 305.712,396.315 303.444,396.081 L303.813,392.04 M355.743,390.519 L354.456,401.769 C348.642,401.112 342.576,400.5 336.411,399.951 L337.257,390.33 C341.433,390.177 346.374,390.078 351.945,390.105 C353.223,390.24 354.492,390.375 355.743,390.519 M120.573,220.482 C169.263,212.544 228.357,208.944 285.498,205.461 C308.565,204.057 331.326,202.671 352.962,201.015 C356.625,200.844 360.243,200.547 363.807,200.16 C428.49,194.832 481.464,186.597 499.572,167.463 C502.92,163.917 505.575,160.479 507.546,157.158 C507.582,158.571 507.609,160.092 507.654,161.712 C505.224,164.169 501.408,170.136 498.618,172.332 L504.918,180.333 C507.195,178.533 507.303,177.849 507.996,176.841 C508.014,177.759 508.041,178.686 508.059,179.64 C501.993,197.478 477.576,207.891 454.5,213.804 L469.719,342.099 C483.309,337.275 503.388,322.713 510.831,313.227 C510.876,316.224 510.921,318.978 510.957,321.444 C507.168,324.225 499.752,329.121 497.277,331.02 L506.169,341.199 C482.877,373.896 394.587,382.851 303.759,387.684 C303.606,387.684 303.462,387.675 303.327,387.666 L302.49,387.612 L302.481,387.756 C285.759,388.638 268.956,389.385 252.477,390.114 C170.118,393.777 92.331,397.233 64.08,415.656 C57.357,420.048 48.114,427.122 42.786,435.636 C42.66,434.34 42.462,432.441 42.21,429.993 C44.541,427.059 48.942,422.091 51.057,420.039 L41.967,410.679 C41.292,411.336 40.77,411.813 40.338,412.2 C40.158,410.526 39.969,408.789 39.771,406.98 C50.913,397.593 72.414,387.225 92.457,381.987 L70.227,259.794 C52.911,265.032 33.462,275.22 23.751,283.734 C23.427,281.673 23.094,279.639 22.761,277.614 C25.038,275.211 29.088,271.503 31.563,269.595 L23.589,259.272 C22.059,260.451 21.042,261.279 20.115,262.107 C19.998,261.414 19.872,260.712 19.746,260.028 C33.678,242.208 66.681,229.266 120.573,220.482 M169.515,209.682 L170.811,198.441 C177.732,199.233 184.896,199.926 192.132,200.502 L190.512,207.72 C183.483,208.341 176.544,208.998 169.713,209.7 L169.515,209.682 M217.062,205.578 C213.876,205.812 210.708,206.055 207.549,206.307 L207.945,201.573 C210.96,201.744 214.02,201.897 217.062,202.032 L217.062,205.578 M494.721,165.78 C495.306,160.272 493.29,152.91 492.336,150.084 L502.083,143.586 C503.343,147.465 503.892,151.479 503.73,155.061 C501.939,158.058 499.509,161.199 496.413,164.475 L496.332,164.556 L494.721,165.78 M44.334,182.799 C27,172.62 15.813,160.191 13.356,148.698 C14.085,149.823 14.85,150.939 15.588,152.01 C16.335,153.09 17.046,154.116 17.649,155.07 L18.315,156.096 L27.036,144.792 L26.712,144.279 C26.118,143.361 24.912,141.786 23.517,139.968 C21.357,137.151 18.216,133.065 17.316,131.166 L49.752,36.117 C51.273,37.656 53.19,39.33 55.782,41.382 L56.592,42.021 L63.774,28.566 L63.207,28.125 C59.787,25.407 56.493,22.635 54.873,21.123 L57.159,14.418 C77.499,43.488 137.637,64.116 185.616,76.473 C248.382,92.646 325.746,103.869 397.863,107.253 C413.91,108.009 437.553,109.845 459.09,114.291 C485.937,119.835 502.281,128.115 506.358,138.222 C507.24,140.409 507.546,142.74 507.303,145.197 L507.267,145.197 C507.267,145.233 507.267,145.359 507.276,145.557 C507.033,147.573 506.412,149.679 505.422,151.866 C505.215,148.626 504.531,145.224 503.352,141.957 L502.983,140.922 L490.248,149.4 L490.491,150.039 C491.31,152.208 494.253,162.144 492.624,167.598 L492.516,167.967 C490.905,169.218 489.096,170.415 487.134,171.558 L483.858,145.728 C480.591,142.776 468.117,139.446 435.555,135.162 L432.891,187.767 C429.399,188.352 425.826,188.919 422.145,189.459 L423.81,133.749 C398.187,133.911 367.002,130.662 334.44,126.378 L332.433,198.135 C328.716,198.387 324.972,198.639 321.21,198.882 L325.926,127.836 C300.357,126.081 271.836,121.851 238.761,118.494 L225.432,203.751 C227.151,204.084 228.888,204.354 230.634,204.606 C226.674,204.876 222.723,205.155 218.79,205.452 L218.79,200.376 L217.962,200.34 C214.371,200.187 210.753,200.007 207.207,199.8 L206.37,199.755 L205.803,206.442 C201.285,206.802 196.776,207.171 192.321,207.558 L194.247,198.936 L193.257,198.864 C185.409,198.252 177.633,197.496 170.154,196.632 L169.299,196.533 L167.751,209.898 C162.639,210.438 157.59,210.996 152.613,211.581 C95.274,206.676 62.082,193.23 44.334,182.799 M12.834,144.297 L16.569,133.344 C17.784,135.288 19.791,137.943 22.149,141.021 C23.283,142.506 24.291,143.82 24.921,144.711 L18.432,153.117 C17.982,152.451 17.505,151.749 17.001,151.029 C15.543,148.905 13.968,146.61 12.843,144.486 L12.834,144.297 M54.261,22.914 C56.358,24.804 59.679,27.513 61.578,29.025 L56.043,39.384 C53.568,37.386 51.768,35.775 50.382,34.281 L54.261,22.914 M515.052,473.841 C512.802,470.457 509.94,466.254 508.383,464.148 L515.079,456.174 C515.601,456.831 516.105,457.452 516.6,458.064 C517.491,459.162 518.355,460.233 519.201,461.385 C518.157,464.994 516.744,469.197 515.052,473.841 M525.537,451.179 L525.528,450.477 L525.114,449.901 C506.376,424.269 475.11,405.864 432.18,395.217 C412.767,390.402 393.777,387.909 377.19,386.721 C393.156,385.101 408.42,383.148 422.613,380.727 C478.89,371.106 509.211,355.149 515.313,331.938 L515.385,331.659 L515.385,331.38 C515.385,306.423 511.902,157.167 511.632,145.782 C511.974,142.587 511.569,139.518 510.39,136.593 C500.238,111.402 435.663,104.679 398.07,102.906 C326.232,99.531 249.183,88.362 186.696,72.261 C117.009,54.306 71.469,31.608 58.473,8.343 L56.097,4.086 L8.595,143.244 L8.478,143.577 L8.478,143.937 C8.451,158.436 20.709,173.97 42.129,186.552 C64.62,199.764 96.156,209.142 134.064,213.984 C77.895,221.913 33.228,234.675 15.696,258.165 L15.129,258.93 L15.291,259.857 C27.405,326.448 37.368,436.671 38.61,450.531 C38.619,450.675 38.628,450.819 38.646,450.963 C38.7,451.575 38.736,451.926 38.736,451.98 L38.772,451.863 C38.871,452.52 38.997,453.177 39.168,453.834 C45.756,479.088 104.238,495.63 212.985,503.001 C343.665,511.866 442.836,544.707 465.633,586.674 L467.64,590.373 L469.503,586.602 C470.115,585.351 474.417,576.585 480.384,564.012 L480.483,563.913 L480.447,563.868 C496.8,529.434 525.555,466.641 525.537,451.179 M116.28,200.835 C108.864,199.152 101.664,197.298 94.851,195.318 L98.046,184.455 C104.625,186.363 111.591,188.163 118.755,189.783 L116.28,200.835 M97.704,182.556 L96.876,182.313 L92.709,196.488 L93.537,196.731 C100.89,198.891 108.693,200.898 116.739,202.707 L117.585,202.896 L120.816,188.478 L119.979,188.289 C112.248,186.552 104.751,184.626 97.704,182.556 M131.949,204.075 L134.064,192.951 C140.895,194.238 148.014,195.408 155.268,196.452 L153.684,207.657 C146.259,206.595 138.96,205.389 131.949,204.075 M155.151,209.61 L157.212,194.985 L156.366,194.859 C148.545,193.761 140.868,192.492 133.542,191.097 L132.687,190.935 L129.933,205.443 L130.779,205.605 C138.339,207.045 146.25,208.35 154.296,209.493 L155.151,209.61 M79.533,190.431 C72.162,187.848 65.196,185.067 58.806,182.133 L63.576,171.864 C69.615,174.636 76.221,177.282 83.232,179.73 L79.533,190.431 M63.513,169.938 L62.73,169.569 L56.511,182.97 L57.294,183.33 C64.179,186.534 71.748,189.567 79.785,192.339 L80.595,192.627 L85.428,178.668 L84.609,178.38 C77.049,175.77 69.948,172.926 63.513,169.938 M44.325,174.681 C37.026,170.46 30.735,165.996 25.587,161.379 L33.237,153.027 C37.773,157.086 43.38,161.055 49.932,164.844 L44.325,174.681 M33.759,151.182 L33.12,150.597 L23.148,161.487 L23.778,162.072 C29.313,167.139 36.189,172.026 44.217,176.607 L44.964,177.039 L52.29,164.205 L51.534,163.782 C44.46,159.741 38.475,155.502 33.759,151.182 M367.902,112.149 L373.833,112.608 C378.522,112.977 383.139,113.328 387.675,113.697 L386.775,124.983 C382.05,124.605 377.235,124.227 372.339,123.849 L367.02,123.435 L367.902,112.149 M387.504,126.765 L388.359,126.837 L389.538,112.113 L388.674,112.041 C383.859,111.654 378.954,111.276 373.968,110.889 L366.318,110.295 L365.166,125.019 L372.204,125.568 C377.397,125.973 382.5,126.369 387.504,126.765 M436.842,118.404 C444.348,119.349 450.9,120.339 456.786,121.428 L454.698,132.552 C449.037,131.508 442.719,130.554 435.447,129.636 L436.842,118.404 M455.22,134.406 L456.075,134.568 L458.802,120.051 L457.956,119.889 C451.584,118.692 444.474,117.612 436.194,116.586 L435.339,116.478 L433.521,131.139 L434.376,131.238 C442.35,132.237 449.172,133.272 455.22,134.406 M333.594,109.341 C339.597,109.872 345.906,110.403 353.304,110.997 L352.395,122.283 C344.97,121.689 338.634,121.158 332.595,120.627 L333.594,109.341 M353.124,124.074 L353.979,124.137 L355.158,109.413 L354.303,109.35 C346.176,108.693 339.372,108.126 332.892,107.55 L332.028,107.478 L330.723,122.193 L331.587,122.265 C338.112,122.841 344.961,123.417 353.124,124.074 M231.741,95.688 C238.086,96.957 244.575,98.154 251.055,99.252 L249.165,110.421 C242.568,109.296 235.971,108.072 229.509,106.785 L231.741,95.688 M249.732,112.266 L250.578,112.41 L253.044,97.839 L252.189,97.695 C245.16,96.507 238.113,95.202 231.237,93.825 L230.391,93.654 L227.484,108.135 L228.33,108.306 C235.35,109.719 242.55,111.051 249.732,112.266 M402.318,114.894 C409.797,115.533 416.304,116.136 422.163,116.739 L420.993,127.998 C415.206,127.404 408.771,126.81 401.355,126.171 L402.318,114.894 M421.668,129.807 L422.532,129.897 L424.053,115.2 L423.198,115.11 C416.889,114.453 409.824,113.796 401.598,113.103 L400.743,113.031 L399.492,127.746 L400.347,127.818 C408.492,128.511 415.458,129.159 421.668,129.807 M265.419,101.547 C271.656,102.483 278.208,103.392 284.922,104.238 L283.509,115.47 C276.696,114.606 270.054,113.697 263.727,112.743 L265.419,101.547 M284.148,117.288 L285.003,117.396 L286.848,102.735 L285.993,102.627 C278.694,101.718 271.566,100.737 264.825,99.72 L263.97,99.585 L261.765,114.192 L262.62,114.327 C269.478,115.362 276.723,116.361 284.148,117.288 M471.483,124.704 C479.907,126.981 486.459,129.627 491.472,132.759 L485.253,142.227 C481.275,139.779 475.686,137.574 468.594,135.648 L471.483,124.704 M485.037,144.135 L485.757,144.612 L493.866,132.264 L493.146,131.787 C487.728,128.232 480.519,125.298 471.096,122.814 L470.259,122.589 L466.488,136.872 L467.325,137.097 C475.074,139.14 481.032,141.507 485.037,144.135 M299.421,105.966 C305.703,106.668 312.138,107.334 319.041,108 L317.961,119.277 C310.986,118.602 304.488,117.918 298.152,117.216 L299.421,105.966 M318.654,121.077 L319.509,121.158 L320.931,106.452 L320.067,106.371 C312.534,105.642 305.559,104.922 298.755,104.148 L297.9,104.058 L296.244,118.737 L297.099,118.827 C303.984,119.61 311.031,120.339 318.654,121.077 M165.618,78.768 C171.756,80.721 178.065,82.602 184.392,84.384 L181.35,95.283 C174.888,93.474 168.435,91.548 162.171,89.55 L165.618,78.768 M181.719,97.182 L182.547,97.416 L186.516,83.187 L185.688,82.953 C178.812,81.036 171.963,78.984 165.321,76.86 L164.502,76.599 L160.002,90.666 L160.821,90.927 C167.643,93.114 174.672,95.211 181.719,97.182 M102.393,53.694 C108.045,56.475 114.003,59.211 120.114,61.857 L115.65,72.252 C109.35,69.534 103.212,66.708 97.371,63.837 L102.393,53.694 M115.758,74.178 L116.55,74.52 L122.382,60.948 L121.59,60.606 C114.948,57.762 108.486,54.783 102.384,51.768 L101.61,51.381 L95.067,64.62 L95.832,65.007 C102.177,68.139 108.873,71.226 115.758,74.178 M198.432,88.137 C204.687,89.73 211.104,91.26 217.512,92.691 L215.073,103.743 C208.53,102.294 201.996,100.728 195.615,99.108 L198.432,88.137 M215.541,105.615 L216.387,105.804 L219.573,91.377 L218.727,91.188 C211.77,89.649 204.804,87.993 198.018,86.256 L197.19,86.04 L193.518,100.35 L194.355,100.566 C201.294,102.339 208.422,104.04 215.541,105.615 M133.506,67.374 C139.455,69.714 145.62,72 151.848,74.178 L148.14,84.879 C141.75,82.647 135.423,80.298 129.339,77.904 L133.506,67.374 M148.392,86.787 L149.211,87.066 L154.044,73.116 L153.234,72.828 C146.457,70.479 139.77,68.004 133.335,65.457 L132.534,65.142 L127.098,78.876 L127.899,79.191 C134.514,81.81 141.408,84.366 148.392,86.787 M72.963,37.179 C77.967,40.437 83.547,43.758 89.577,47.052 L84.177,57.006 C77.859,53.55 72,50.067 66.735,46.629 L72.963,37.179 M84.114,58.932 L84.87,59.346 L91.917,46.359 L91.161,45.954 C84.591,42.381 78.543,38.781 73.188,35.262 L72.468,34.785 L64.35,47.124 L65.07,47.601 C70.767,51.354 77.175,55.161 84.114,58.932 M135.405,483.93 C128.394,483.111 122.103,482.301 116.208,481.464 L117.81,470.259 C123.624,471.087 129.825,471.879 136.71,472.68 L135.405,483.93 M117.198,468.432 L116.352,468.306 L114.255,482.931 L115.101,483.048 C121.5,483.966 128.358,484.848 136.062,485.739 L136.917,485.838 L138.618,471.168 L137.763,471.069 C130.212,470.187 123.48,469.332 117.198,468.432 M427.329,539.685 C422.037,536.85 416.385,534.096 410.499,531.486 L415.053,521.127 C421.227,523.863 427.158,526.752 432.711,529.731 L427.329,539.685 M414.963,519.201 L414.171,518.85 L408.222,532.377 L409.014,532.719 C415.422,535.536 421.569,538.533 427.266,541.611 L428.022,542.025 L435.051,529.029 L434.295,528.624 C428.247,525.348 421.74,522.18 414.963,519.201 M101.943,479.241 C94.779,478.017 88.47,476.739 82.728,475.353 L85.419,464.355 C90.9,465.678 96.939,466.902 103.842,468.081 L101.943,479.241 M84.987,462.483 L84.15,462.276 L80.64,476.622 L81.477,476.829 C87.705,478.35 94.59,479.745 102.51,481.095 L103.356,481.239 L105.831,466.668 L104.976,466.524 C97.407,465.246 90.873,463.923 84.987,462.483 M268.668,497.295 C262.647,496.575 256.41,495.882 249.651,495.162 L250.848,483.903 C257.643,484.623 263.925,485.334 270,486.045 L268.668,497.295 M250.173,482.094 L249.309,482.004 L247.752,496.692 L248.607,496.782 C256.014,497.574 262.791,498.33 269.325,499.104 L270.18,499.212 L271.917,484.542 L271.062,484.434 C264.465,483.651 257.625,482.886 250.173,482.094 M301.626,501.705 C296.172,500.859 290.538,500.049 284.859,499.311 L282.789,499.041 L284.229,487.809 L286.335,488.079 C292.104,488.835 297.828,489.654 303.381,490.527 L301.626,501.705 M286.56,486.369 L282.744,485.874 L280.854,500.526 L284.643,501.021 C290.592,501.795 296.505,502.65 302.211,503.55 L303.057,503.685 L305.361,489.087 L304.506,488.952 C298.674,488.034 292.635,487.17 286.56,486.369 M168.822,487.422 C161.721,486.738 155.43,486.117 149.661,485.505 L150.849,474.246 C156.555,474.849 162.81,475.479 169.902,476.154 L168.822,487.422 M150.174,472.437 L149.319,472.356 L147.762,487.044 L148.617,487.134 C154.863,487.791 161.694,488.475 169.515,489.222 L170.379,489.303 L171.783,474.606 L170.928,474.525 C163.125,473.778 156.339,473.094 150.174,472.437 M454.473,557.28 C449.874,553.635 444.807,550.062 439.389,546.669 L445.356,537.048 C451.17,540.684 456.237,544.257 461.187,548.19 L454.473,557.28 M445.527,535.122 L444.798,534.672 L437.013,547.227 L437.742,547.677 C443.664,551.349 449.163,555.219 454.095,559.188 L454.797,559.746 L463.554,547.884 L462.915,547.362 C457.497,543.006 451.971,539.118 445.527,535.122 M202.185,490.527 L195.003,489.861 C190.989,489.492 187.002,489.132 183.06,488.763 L184.104,477.486 C188.046,477.855 192.024,478.224 196.038,478.593 L203.229,479.25 L202.185,490.527 M183.402,475.695 L182.547,475.614 L181.179,490.32 L182.043,490.401 C186.264,490.797 190.539,491.184 194.841,491.58 L203.742,492.399 L205.101,477.693 L196.2,476.874 C191.889,476.478 187.623,476.082 183.402,475.695 M397.53,526.113 C391.86,523.917 385.893,521.793 379.773,519.795 L383.265,509.031 C389.601,511.092 395.775,513.297 401.652,515.574 L397.53,526.113 M382.977,507.123 L382.149,506.853 L377.604,520.911 L378.423,521.172 C385.092,523.332 391.572,525.636 397.71,528.039 L398.511,528.354 L403.884,514.593 L403.083,514.278 C396.684,511.776 389.916,509.373 382.977,507.123 M235.476,493.695 C229.581,493.11 223.317,492.498 216.396,491.85 L217.458,480.582 C224.55,481.248 230.832,481.86 236.601,482.436 L235.476,493.695 M216.756,478.782 L215.901,478.701 L214.515,493.407 L215.379,493.488 C222.975,494.199 229.77,494.865 236.16,495.504 L237.015,495.585 L238.491,480.888 L237.636,480.807 C231.39,480.177 224.559,479.511 216.756,478.782 M366.3,515.673 C360.414,513.981 354.267,512.352 348.003,510.831 L350.649,499.824 C357.075,501.39 363.393,503.055 369.45,504.801 L366.3,515.673 M350.217,497.943 L349.38,497.745 L345.915,512.109 L346.752,512.307 C353.583,513.954 360.279,515.727 366.651,517.572 L367.479,517.806 L371.583,503.622 L370.755,503.379 C364.158,501.471 357.246,499.644 350.217,497.943 M334.215,507.69 C328.185,506.403 321.93,505.179 315.594,504.045 L317.574,492.903 C324.045,494.055 330.444,495.315 336.6,496.629 L334.215,507.69 M317.025,491.049 L316.17,490.896 L313.587,505.44 L314.442,505.593 C321.345,506.817 328.158,508.158 334.701,509.562 L335.538,509.742 L338.652,495.306 L337.806,495.117 C331.101,493.677 324.108,492.309 317.025,491.049 M463.77,416.421 C469.746,419.139 475.398,422.073 480.6,425.178 L474.732,434.862 C469.935,432 464.697,429.273 459.144,426.753 L463.77,416.421 M474.579,436.788 L475.317,437.229 L482.967,424.593 L482.229,424.152 C476.55,420.705 470.313,417.456 463.698,414.495 L462.906,414.135 L456.867,427.617 L457.65,427.968 C463.716,430.695 469.413,433.656 474.579,436.788 M433.008,405.144 C439.218,406.98 445.185,408.96 450.774,411.057 L446.76,421.641 C441.441,419.652 435.753,417.762 429.84,416.016 L433.008,405.144 M446.958,423.558 L447.759,423.864 L452.997,410.058 L452.196,409.752 C446.085,407.43 439.515,405.243 432.666,403.245 L431.838,403.002 L427.698,417.186 L428.526,417.429 C435.006,419.319 441.207,421.38 446.958,423.558 M401.409,397.467 C407.673,398.709 413.766,400.068 419.544,401.499 L416.79,412.479 C411.21,411.093 405.315,409.779 399.231,408.573 L401.409,397.467 M417.204,414.36 L418.041,414.576 L421.641,400.248 L420.804,400.032 C414.486,398.448 407.79,396.963 400.896,395.604 L400.05,395.442 L397.206,409.932 L398.052,410.103 C404.712,411.408 411.156,412.839 417.204,414.36 M492.435,433.08 C497.592,436.878 501.417,439.713 505.719,444.123 L498.618,453.483 C494.721,449.478 490.383,445.689 485.721,442.197 L492.435,433.08 M498.078,455.4 L498.771,456.129 L507.987,443.997 L507.474,443.466 C502.785,438.561 498.762,435.6 493.2,431.496 L492.075,430.668 L483.309,442.566 L484.011,443.079 C489.141,446.85 493.875,450.999 498.078,455.4" fill="#ffc107"/>
    <path d="M101.943,360.855 L97.686,359.973 L101.613,340.986 L103.712,352.299 L101.943,360.855 M120.687,248.771 L121.158,246.492 L125.595,246.492 L125.268,248.073 C123.729,248.302 122.203,248.535 120.687,248.771" fill="#000000"/>
    <path d="M103.712,352.299 L101.613,340.986 L120.687,248.771 C122.203,248.535 123.729,248.302 125.268,248.073 L103.712,352.299" fill="#000000"/>
    <path d="M122.747,384.903 L112.707,382.482 L113.984,377.187 C118.524,376.319 123.201,375.502 128.004,374.733 L126.775,379.827 C125.183,380.043 123.625,380.262 122.103,380.484 L122.747,384.903 M145.804,245.275 L146.268,243.351 L160.767,238.905 L159.624,243.645 C154.961,244.166 150.352,244.709 145.804,245.275" fill="#000000"/>
    <path d="M125.397,385.542 L122.747,384.903 L122.103,380.484 C123.625,380.262 125.183,380.043 126.775,379.827 L125.397,385.542 M113.984,377.187 L145.804,245.275 C150.352,244.709 154.961,244.166 159.624,243.645 L128.004,374.733 C123.201,375.502 118.524,376.319 113.984,377.187" fill="#000000"/>
    <path d="M135.125,378.758 L136.402,373.452 C137.935,373.229 139.479,373.011 141.034,372.797 L139.73,378.216 C138.173,378.394 136.637,378.575 135.125,378.758 M167.851,242.753 L168.489,240.102 L172.962,240.102 L172.438,242.279 C170.904,242.435 169.377,242.593 167.851,242.753" fill="#000000"/>
    <path d="M138.654,382.689 L134.424,381.672 L135.125,378.758 C136.637,378.575 138.173,378.394 139.73,378.216 L138.654,382.689 M136.402,373.452 L167.851,242.753 C169.377,242.593 170.904,242.435 172.438,242.279 L141.034,372.797 C139.479,373.011 137.935,373.229 136.402,373.452" fill="#000000"/>
    <path d="M4.23,387.018 L0,385.992 L21.378,297.797 C21.933,301.653 22.481,305.56 23.019,309.495 L4.23,387.018 M25.054,282.629 L25.299,281.619 L31.248,275.544 L30.514,278.571 C28.505,279.941 26.671,281.301 25.054,282.629" fill="#000000"/>
    <path d="M23.019,309.495 C22.481,305.56 21.933,301.653 21.378,297.797 L25.054,282.629 C26.671,281.301 28.505,279.941 30.514,278.571 L23.019,309.495" fill="#000000"/>
    <path d="M27.693,411.633 L15.012,408.573 L28.487,352.706 C30.049,365.965 31.476,378.863 32.735,390.731 L27.693,411.633 M48.876,268.178 L49.878,264.024 L64.548,258.858 L63.809,261.923 C58.796,263.725 53.728,265.86 48.876,268.178" fill="#000000"/>
    <path d="M32.735,390.731 C31.476,378.863 30.049,365.965 28.487,352.706 L48.876,268.178 C53.728,265.86 58.796,263.725 63.809,261.923 L32.735,390.731" fill="#000000"/>
    <path d="M35.991,423.054 L35.991,423.054 L31.77,421.992 L34.743,410.114 C35.204,414.676 35.63,418.974 36.018,422.946 L35.991,423.054 M39.845,407.654 C39.82,407.43 39.796,407.206 39.771,406.98 C39.872,406.895 39.974,406.809 40.077,406.724 L39.845,407.654 M73.013,275.108 L71.125,264.731 L71.487,263.286 L75.708,264.339 L73.013,275.108" fill="#000000"/>
    <path d="M36.018,422.946 C35.63,418.974 35.204,414.676 34.743,410.114 L71.125,264.731 L73.013,275.108 L40.077,406.724 C39.974,406.809 39.872,406.895 39.771,406.98 C39.796,407.206 39.82,407.43 39.845,407.654 L36.018,422.946" fill="#000000"/>
    <path d="M231.831,348.597 L227.574,347.715 L233.6,318.576 L235.619,330.284 L231.831,348.597 M250.814,235.344 L251.433,232.353 L255.681,233.289 L255.328,234.997 C253.822,235.113 252.314,235.229 250.814,235.344" fill="#000000"/>
    <path d="M235.619,330.284 L233.6,318.576 L250.814,235.344 C252.314,235.229 253.822,235.113 255.328,234.997 L235.619,330.284" fill="#000000"/>
    <path d="M255.285,373.284 L249.038,371.777 L248.976,370.476 C247.486,370.548 246.008,370.62 244.542,370.692 L242.604,370.224 L244.179,363.695 C248.705,363.425 253.243,363.163 257.788,362.906 L255.285,373.284 M275.591,233.434 L276.156,231.093 L289.836,230.049 L289.274,232.377 C284.729,232.728 280.163,233.081 275.591,233.434" fill="#000000"/>
    <path d="M249.038,371.777 L244.542,370.692 C246.008,370.62 247.486,370.548 248.976,370.476 L249.038,371.777 M244.179,363.695 L275.591,233.434 C280.163,233.081 284.729,232.728 289.274,232.377 L257.788,362.906 C253.243,363.163 248.705,363.425 244.179,363.695" fill="#000000"/>
    <path d="M265.597,369.714 L264.312,369.405 L265.941,362.451 C267.466,362.367 268.995,362.283 270.521,362.199 L268.746,369.573 C267.702,369.62 266.652,369.667 265.597,369.714 M296.543,231.815 L296.982,229.941 L302.346,229.941 L301.996,231.393 C300.187,231.533 298.365,231.674 296.543,231.815" fill="#000000"/>
    <path d="M268.542,370.422 L265.597,369.714 C266.652,369.667 267.702,369.62 268.746,369.573 L268.542,370.422 M265.941,362.451 L296.543,231.815 C298.365,231.674 300.187,231.533 301.996,231.393 L270.521,362.199 C268.995,362.283 267.466,362.367 265.941,362.451" fill="#000000"/>
    <path d="M362.16,340.173 L357.903,339.291 L360.621,326.15 L362.498,338.536 L362.16,340.173 M381.404,225.653 L382.023,222.66 L386.631,221.859 L385.932,225.238 C384.425,225.378 382.918,225.516 381.404,225.653" fill="#000000"/>
    <path d="M362.498,338.536 L360.621,326.15 L381.404,225.653 C382.918,225.516 384.425,225.378 385.932,225.238 L362.498,338.536" fill="#000000"/>
    <path d="M375.469,362.412 L372.933,361.8 L374.187,356.602 C378.822,356.21 383.398,355.794 387.907,355.353 L386.479,361.273 C382.926,361.659 379.246,362.039 375.469,362.412 M406.371,223.177 L406.494,222.669 L420.84,218.799 L420.185,221.516 C415.74,222.1 411.115,222.652 406.371,223.177" fill="#000000"/>
    <path d="M385.614,364.86 L375.469,362.412 C379.246,362.039 382.926,361.659 386.479,361.273 L385.614,364.86 M374.187,356.602 L406.371,223.177 C411.115,222.652 415.74,222.1 420.185,221.516 L387.907,355.353 C383.398,355.794 378.822,356.21 374.187,356.602" fill="#000000"/>
    <path d="M398.871,361.998 L394.641,360.981 L396.2,354.503 C397.741,354.337 399.274,354.168 400.797,353.996 L398.871,361.998 M428.485,220.353 L428.859,218.799 L433.332,218.799 L433.132,219.628 C431.614,219.875 430.066,220.117 428.485,220.353" fill="#000000"/>
    <path d="M396.2,354.503 L428.485,220.353 C430.066,220.117 431.614,219.875 433.132,219.628 L400.797,353.996 C399.274,354.168 397.741,354.337 396.2,354.503" fill="#000000"/>
    <path d="M468.711,348.236 L464.67,347.4 L468.278,329.954 L469.719,342.099 C469.896,342.036 470.075,341.971 470.255,341.905 L469.493,345.587 C468.997,345.761 468.497,345.933 467.991,346.104 L468.711,348.236 M496.079,195.537 L496.917,191.484 L501.948,188.658 L501.593,190.374 C499.958,192.197 498.107,193.917 496.079,195.537" fill="#000000"/>
    <path d="M468.936,348.282 L468.711,348.236 L467.991,346.104 C468.497,345.933 468.997,345.761 469.493,345.587 L468.936,348.282 M469.719,342.099 L468.278,329.954 L496.079,195.537 C498.107,193.917 499.958,192.197 501.593,190.374 L470.255,341.905 C470.075,341.971 469.896,342.036 469.719,342.099" fill="#000000"/>
    <path d="M496.908,345.222 L490.006,343.516 L486.864,337.914 C486.257,338.254 485.642,338.588 485.018,338.918 L486.33,333.603 C492.216,329.883 498.031,325.563 502.78,321.412 L501.078,328.314 C499.474,329.422 498.101,330.388 497.277,331.02 L499.72,333.817 L496.908,345.222 M514.459,274.053 C514.138,258.081 513.767,240.627 513.4,223.864 L521.388,191.484 L534.051,194.607 L514.459,274.053" fill="#000000"/>
    <path d="M490.006,343.516 L484.236,342.09 L485.018,338.918 C485.642,338.588 486.257,338.254 486.864,337.914 L490.006,343.516 M499.72,333.817 L497.277,331.02 C498.101,330.388 499.474,329.422 501.078,328.314 L499.72,333.817 M486.33,333.603 L513.4,223.864 C513.767,240.627 514.138,258.081 514.459,274.053 L502.78,321.412 C498.031,325.563 492.216,329.883 486.33,333.603" fill="#000000"/>
    <path d="M515.335,324.332 C515.284,319.703 515.194,313.739 515.076,306.811 L542.061,194.661 L546.291,195.678 L515.335,324.332" fill="#000000"/>
    <path d="M513.765,330.858 L509.535,329.841 L515.076,306.811 C515.194,313.739 515.284,319.703 515.335,324.332 L513.765,330.858" fill="#000000"/>
  </g>
</svg>
