<?xml version="1.0" encoding="UTF-8" standalone="no"?>
<!-- Created with Inkscape (http://www.inkscape.org/) -->

<svg
   xmlns:dc="http://purl.org/dc/elements/1.1/"
   xmlns:cc="http://creativecommons.org/ns#"
   xmlns:rdf="http://www.w3.org/1999/02/22-rdf-syntax-ns#"
   xmlns:svg="http://www.w3.org/2000/svg"
   xmlns="http://www.w3.org/2000/svg"
   version="1.0"
   width="48.065819"
   height="42.435688"
   id="svg1487">
  <metadata
     id="metadata1492">
    <rdf:RDF>
      <cc:Work
         rdf:about="">
        <dc:format>image/svg+xml</dc:format>
        <dc:type
           rdf:resource="http://purl.org/dc/dcmitype/StillImage" />
        <dc:title></dc:title>
      </cc:Work>
    </rdf:RDF>
  </metadata>
  <defs
     id="defs1490" />
  <g
     transform="matrix(-1,0,0,-1,562.9645,436.11858)"
     id="g15748">
    <g
       transform="translate(216.2442,95.29377)"
       id="g15720">
      <path
         d="m 303.07455,299.63785 c -3.39584,1.81997 -5.20528,5.11455 -4.09222,7.59296 1.18726,2.64364 5.26701,3.38972 9.10658,1.66537 3.83956,-1.72436 5.99216,-5.2694 4.8049,-7.91303 -1.18727,-2.64364 -5.26701,-3.38972 -9.10658,-1.66537 -0.23997,0.10777 -0.48628,0.19874 -0.71268,0.32007 z"
         id="path15722"
         style="fill:#ffc107;fill-opacity:1;fill-rule:evenodd;stroke:none" />
      <path
         d="m 299.4045,305.82483 0,33.74719"
         id="path15724"
         style="fill:none;stroke:#ffc107;stroke-width:1.5;stroke-linecap:butt;stroke-linejoin:miter;stroke-miterlimit:4;stroke-opacity:1;stroke-dasharray:none" />
    </g>
    <g
       transform="translate(249.7859,95.18969)"
       id="g15738">
      <path
         d="m 303.03285,299.74193 c -3.39584,1.81997 -5.20528,5.11455 -4.09222,7.59296 1.18726,2.64364 5.26701,3.38972 9.10658,1.66537 3.83956,-1.72436 5.99216,-5.2694 4.8049,-7.91303 -1.18727,-2.64364 -5.26701,-3.38972 -9.10658,-1.66537 -0.23997,0.10777 -0.48628,0.19874 -0.71268,0.32007 z"
         id="path15740"
         style="fill:#ffc107;fill-opacity:1;fill-rule:evenodd;stroke:none" />
      <path
         d="m 299.3628,305.92891 0,33.64311"
         id="path15742"
         style="fill:none;stroke:#ffc107;stroke-width:1.5;stroke-linecap:butt;stroke-linejoin:miter;stroke-miterlimit:4;stroke-opacity:1;stroke-dasharray:none" />
    </g>
    <rect
       width="35"
       height="4.5999999"
       x="514.89868"
       y="422.7186"
       id="rect15744"
       style="fill:#ffc107;fill-opacity:1;fill-rule:evenodd;stroke:none" />
    <rect
       width="35"
       height="4.5999999"
       x="514.89874"
       y="431.51859"
       id="rect15746"
       style="fill:#ffc107;fill-opacity:1;fill-rule:evenodd;stroke:none" />
  </g>
</svg>
